<svg width="900" height="1200" viewBox="0 0 900 1200" fill="none" xmlns="http://www.w3.org/2000/svg">
  <rect width="900" height="1200" fill="#F3F1EC"/>
  <rect x="96" y="122" width="708" height="956" rx="44" fill="#E5E0D8"/>
  <path d="M308 350C308 278 366 220 438 220H462C534 220 592 278 592 350V412H652C684 412 710 438 710 470V894C710 926 684 952 652 952H248C216 952 190 926 190 894V470C190 438 216 412 248 412H308V350Z" fill="#C9BFAF"/>
  <path d="M368 412V350C368 311 399 280 438 280H462C501 280 532 311 532 350V412" stroke="#F3F1EC" stroke-width="38" stroke-linecap="round"/>
  <path d="M330 650H570" stroke="#F3F1EC" stroke-width="34" stroke-linecap="round"/>
  <path d="M372 724H528" stroke="#F3F1EC" stroke-width="26" stroke-linecap="round"/>
  <text x="450" y="1038" text-anchor="middle" fill="#82796D" font-family="Arial, Helvetica, sans-serif" font-size="34" font-weight="700">NATIVA</text>
</svg>
